<svg width="40" height="34" viewBox="0 0 40 34" fill="none" xmlns="http://www.w3.org/2000/svg">
<path d="M40 11.9682C40 16.8368 37.2923 20.8107 31.7221 24.1174C24.6941 28.2896 21.2414 33.3123 21.2073 33.3626C20.9372 33.761 20.4844 34 19.9999 34C19.5158 34 19.0636 33.7614 18.7935 33.3639C18.7408 33.2866 15.2491 28.2558 8.27788 24.1174C2.70766 20.8107 0 16.8366 0 11.9682C0 6.16625 3.81926 4.48069e-09 10.8971 4.48069e-09C15.6384 4.48069e-09 18.5124 2.07851 20.0001 3.63553C21.4878 2.07832 24.3618 4.48069e-09 29.1031 4.48069e-09C36.1809 -0.000191935 40 6.16625 40 11.9682Z" fill="#D1BCFE"/>
</svg>
