<svg width="128" height="128" viewBox="0 0 128 128" fill="none" xmlns="http://www.w3.org/2000/svg">
<circle cx="64" cy="64" r="64" fill="#3900B1"/>
<path d="M86.2603 69.76C90.4509 69.76 93.8732 73.0553 94.0709 77.1987L94.0799 77.5776V78.96C94.0799 85.8701 90.5072 91.0431 85.0268 94.3796C79.6376 97.6605 72.3935 99.2 64.6399 99.2C56.8864 99.2 49.6423 97.6605 44.2531 94.3796C38.9387 91.1442 35.4182 86.1819 35.2097 79.5834L35.2 78.96V77.578C35.2 73.3854 38.499 69.9665 42.641 69.769L43.0198 69.76H86.2603ZM64.6399 25.6C74.8019 25.6 83.0399 33.838 83.0399 44C83.0399 54.162 74.8019 62.4 64.6399 62.4C54.478 62.4 46.24 54.162 46.24 44C46.24 33.838 54.478 25.6 64.6399 25.6Z" fill="white"/>
</svg>
