<svg width="354" height="56" viewBox="0 0 354 56" fill="none" xmlns="http://www.w3.org/2000/svg">
<path d="M23.85 55.2C19.5 55.2 15.25 54.725 11.1 53.775C7 52.775 3.625 51.45 0.975 49.8L6.675 36.9C9.175 38.35 11.975 39.525 15.075 40.425C18.175 41.275 21.15 41.7 24 41.7C26.45 41.7 28.2 41.475 29.25 41.025C30.3 40.525 30.825 39.8 30.825 38.85C30.825 37.75 30.125 36.925 28.725 36.375C27.375 35.825 25.125 35.225 21.975 34.575C17.925 33.725 14.55 32.825 11.85 31.875C9.15 30.875 6.8 29.275 4.8 27.075C2.8 24.825 1.8 21.8 1.8 18C1.8 14.7 2.725 11.7 4.575 9C6.425 6.3 9.175 4.175 12.825 2.625C16.525 1.075 21 0.299998 26.25 0.299998C29.85 0.299998 33.375 0.699998 36.825 1.5C40.325 2.25 43.4 3.375 46.05 4.875L40.725 17.7C35.575 15.1 30.7 13.8 26.1 13.8C21.55 13.8 19.275 14.9 19.275 17.1C19.275 18.15 19.95 18.95 21.3 19.5C22.65 20 24.875 20.55 27.975 21.15C31.975 21.9 35.35 22.775 38.1 23.775C40.85 24.725 43.225 26.3 45.225 28.5C47.275 30.7 48.3 33.7 48.3 37.5C48.3 40.8 47.375 43.8 45.525 46.5C43.675 49.15 40.9 51.275 37.2 52.875C33.55 54.425 29.1 55.2 23.85 55.2ZM81.092 55.2C75.442 55.2 70.367 54.025 65.867 51.675C61.367 49.325 57.842 46.075 55.292 41.925C52.742 37.725 51.467 33 51.467 27.75C51.467 22.5 52.742 17.8 55.292 13.65C57.842 9.45 61.367 6.175 65.867 3.825C70.367 1.475 75.442 0.299998 81.092 0.299998C86.742 0.299998 91.817 1.475 96.317 3.825C100.817 6.175 104.342 9.45 106.892 13.65C109.442 17.8 110.717 22.5 110.717 27.75C110.717 33 109.442 37.725 106.892 41.925C104.342 46.075 100.817 49.325 96.317 51.675C91.817 54.025 86.742 55.2 81.092 55.2ZM81.092 40.875C83.292 40.875 85.267 40.35 87.017 39.3C88.817 38.2 90.242 36.675 91.292 34.725C92.342 32.725 92.867 30.4 92.867 27.75C92.867 25.1 92.342 22.8 91.292 20.85C90.242 18.85 88.817 17.325 87.017 16.275C85.267 15.175 83.292 14.625 81.092 14.625C78.892 14.625 76.892 15.175 75.092 16.275C73.342 17.325 71.942 18.85 70.892 20.85C69.842 22.8 69.317 25.1 69.317 27.75C69.317 30.4 69.842 32.725 70.892 34.725C71.942 36.675 73.342 38.2 75.092 39.3C76.892 40.35 78.892 40.875 81.092 40.875ZM144.291 55.2C138.741 55.2 133.741 54.05 129.291 51.75C124.841 49.4 121.341 46.15 118.791 42C116.291 37.8 115.041 33.05 115.041 27.75C115.041 22.45 116.291 17.725 118.791 13.575C121.341 9.375 124.841 6.125 129.291 3.825C133.741 1.475 138.741 0.299998 144.291 0.299998C149.391 0.299998 153.941 1.2 157.941 3C161.941 4.8 165.241 7.4 167.841 10.8L156.666 20.775C153.416 16.675 149.591 14.625 145.191 14.625C141.491 14.625 138.516 15.825 136.266 18.225C134.016 20.575 132.891 23.75 132.891 27.75C132.891 31.75 134.016 34.95 136.266 37.35C138.516 39.7 141.491 40.875 145.191 40.875C149.591 40.875 153.416 38.825 156.666 34.725L167.841 44.7C165.241 48.1 161.941 50.7 157.941 52.5C153.941 54.3 149.391 55.2 144.291 55.2ZM196.877 14.85V40.65H204.752V54H171.302V40.65H179.177V14.85H171.302V1.5H204.752V14.85H196.877ZM262.324 1.5V54H245.149V48.375C241.599 52.925 236.749 55.2 230.599 55.2C224.449 55.2 219.674 53.175 216.274 49.125C212.874 45.075 211.174 39.325 211.174 31.875V1.5H228.874V31.35C228.874 34.55 229.549 36.95 230.899 38.55C232.249 40.1 234.124 40.875 236.524 40.875C238.874 40.875 240.799 40.025 242.299 38.325C243.849 36.575 244.624 34.05 244.624 30.75V1.5H262.324ZM333.802 0.299998C340.052 0.299998 344.927 2.175 348.427 5.925C351.927 9.675 353.677 15.075 353.677 22.125V54H335.977V22.65C335.977 20.05 335.302 18.075 333.952 16.725C332.602 15.325 330.752 14.625 328.402 14.625C326.002 14.625 324.077 15.375 322.627 16.875C321.227 18.325 320.527 20.45 320.527 23.25V54H302.827V22.65C302.827 20.05 302.202 18.075 300.952 16.725C299.752 15.325 298.052 14.625 295.852 14.625C293.602 14.625 291.827 15.375 290.527 16.875C289.227 18.325 288.577 20.45 288.577 23.25V54H270.877V1.5H287.977V6.75C291.227 2.45 296.052 0.299998 302.452 0.299998C309.152 0.299998 314.127 2.65 317.377 7.35C319.227 5 321.552 3.25 324.352 2.1C327.202 0.899998 330.352 0.299998 333.802 0.299998Z" fill="url(#paint0_linear_1_5)"/>
<defs>
<linearGradient id="paint0_linear_1_5" x1="179" y1="-18" x2="179" y2="73" gradientUnits="userSpaceOnUse">
<stop stop-color="#3900B1"/>
<stop offset="1" stop-color="white"/>
</linearGradient>
</defs>
</svg>
