<svg width="260" height="41" viewBox="0 0 260 41" fill="none" xmlns="http://www.w3.org/2000/svg">
<path d="M17.49 40.88C14.3 40.88 11.1833 40.5317 8.14 39.835C5.13333 39.1017 2.65833 38.13 0.715 36.92L4.895 27.46C6.72833 28.5233 8.78167 29.385 11.055 30.045C13.3283 30.6683 15.51 30.98 17.6 30.98C19.3967 30.98 20.68 30.815 21.45 30.485C22.22 30.1183 22.605 29.5867 22.605 28.89C22.605 28.0833 22.0917 27.4783 21.065 27.075C20.075 26.6717 18.425 26.2317 16.115 25.755C13.145 25.1317 10.67 24.4717 8.69 23.775C6.71 23.0417 4.98667 21.8683 3.52 20.255C2.05333 18.605 1.32 16.3867 1.32 13.6C1.32 11.18 1.99833 8.98 3.355 7C4.71167 5.02 6.72833 3.46166 9.405 2.325C12.1183 1.18833 15.4 0.619999 19.25 0.619999C21.89 0.619999 24.475 0.913332 27.005 1.5C29.5717 2.05 31.8267 2.875 33.77 3.975L29.865 13.38C26.0883 11.4733 22.5133 10.52 19.14 10.52C15.8033 10.52 14.135 11.3267 14.135 12.94C14.135 13.71 14.63 14.2967 15.62 14.7C16.61 15.0667 18.2417 15.47 20.515 15.91C23.4483 16.46 25.9233 17.1017 27.94 17.835C29.9567 18.5317 31.6983 19.6867 33.165 21.3C34.6683 22.9133 35.42 25.1133 35.42 27.9C35.42 30.32 34.7417 32.52 33.385 34.5C32.0283 36.4433 29.9933 38.0017 27.28 39.175C24.6033 40.3117 21.34 40.88 17.49 40.88ZM59.4675 40.88C55.3241 40.88 51.6025 40.0183 48.3025 38.295C45.0025 36.5717 42.4175 34.1883 40.5475 31.145C38.6775 28.065 37.7425 24.6 37.7425 20.75C37.7425 16.9 38.6775 13.4533 40.5475 10.41C42.4175 7.33 45.0025 4.92833 48.3025 3.205C51.6025 1.48167 55.3241 0.619999 59.4675 0.619999C63.6108 0.619999 67.3325 1.48167 70.6325 3.205C73.9325 4.92833 76.5175 7.33 78.3875 10.41C80.2575 13.4533 81.1925 16.9 81.1925 20.75C81.1925 24.6 80.2575 28.065 78.3875 31.145C76.5175 34.1883 73.9325 36.5717 70.6325 38.295C67.3325 40.0183 63.6108 40.88 59.4675 40.88ZM59.4675 30.375C61.0808 30.375 62.5291 29.99 63.8125 29.22C65.1325 28.4133 66.1775 27.295 66.9475 25.865C67.7175 24.3983 68.1025 22.6933 68.1025 20.75C68.1025 18.8067 67.7175 17.12 66.9475 15.69C66.1775 14.2233 65.1325 13.105 63.8125 12.335C62.5291 11.5283 61.0808 11.125 59.4675 11.125C57.8541 11.125 56.3875 11.5283 55.0675 12.335C53.7841 13.105 52.7575 14.2233 51.9875 15.69C51.2175 17.12 50.8325 18.8067 50.8325 20.75C50.8325 22.6933 51.2175 24.3983 51.9875 25.865C52.7575 27.295 53.7841 28.4133 55.0675 29.22C56.3875 29.99 57.8541 30.375 59.4675 30.375ZM105.814 40.88C101.744 40.88 98.0769 40.0367 94.8136 38.35C91.5502 36.6267 88.9836 34.2433 87.1136 31.2C85.2802 28.12 84.3636 24.6367 84.3636 20.75C84.3636 16.8633 85.2802 13.3983 87.1136 10.355C88.9836 7.275 91.5502 4.89167 94.8136 3.205C98.0769 1.48167 101.744 0.619999 105.814 0.619999C109.554 0.619999 112.89 1.28 115.824 2.6C118.757 3.92 121.177 5.82666 123.084 8.32L114.889 15.635C112.505 12.6283 109.7 11.125 106.474 11.125C103.76 11.125 101.579 12.005 99.9286 13.765C98.2786 15.4883 97.4536 17.8167 97.4536 20.75C97.4536 23.6833 98.2786 26.03 99.9286 27.79C101.579 29.5133 103.76 30.375 106.474 30.375C109.7 30.375 112.505 28.8717 114.889 25.865L123.084 33.18C121.177 35.6733 118.757 37.58 115.824 38.9C112.89 40.22 109.554 40.88 105.814 40.88ZM144.376 11.29V30.21H150.151V40H125.621V30.21H131.396V11.29H125.621V1.5H150.151V11.29H144.376ZM192.371 1.5V40H179.776V35.875C177.172 39.2117 173.616 40.88 169.106 40.88C164.596 40.88 161.094 39.395 158.601 36.425C156.107 33.455 154.861 29.2383 154.861 23.775V1.5H167.841V23.39C167.841 25.7367 168.336 27.4967 169.326 28.67C170.316 29.8067 171.691 30.375 173.451 30.375C175.174 30.375 176.586 29.7517 177.686 28.505C178.822 27.2217 179.391 25.37 179.391 22.95V1.5H192.371ZM244.788 0.619999C249.371 0.619999 252.946 1.995 255.513 4.745C258.079 7.495 259.363 11.455 259.363 16.625V40H246.383V17.01C246.383 15.1033 245.888 13.655 244.898 12.665C243.908 11.6383 242.551 11.125 240.828 11.125C239.068 11.125 237.656 11.675 236.593 12.775C235.566 13.8383 235.053 15.3967 235.053 17.45V40H222.073V17.01C222.073 15.1033 221.614 13.655 220.698 12.665C219.818 11.6383 218.571 11.125 216.958 11.125C215.308 11.125 214.006 11.675 213.053 12.775C212.099 13.8383 211.623 15.3967 211.623 17.45V40H198.643V1.5H211.183V5.35C213.566 2.19666 217.104 0.619999 221.798 0.619999C226.711 0.619999 230.359 2.34333 232.743 5.79C234.099 4.06666 235.804 2.78333 237.858 1.94C239.948 1.06 242.258 0.619999 244.788 0.619999Z" fill="white"/>
</svg>
